<?xml version="1.0" encoding="UTF-8"?> <svg xmlns="http://www.w3.org/2000/svg" viewBox="0 0 253.02 332.5"> <defs> <style>.cls-1{fill:#d9b059;fill-rule:evenodd;}</style> </defs> <title>Логотип Top Gym</title> <g id="Слой_2" data-name="Слой 2"> <g id="Слой_1-2" data-name="Слой 1"> <path class="cls-1" d="M234.76,39.15h-103V332.5l121.3-70v-102H192.37v40.43h27.89l-7.67,9.63v28.62l-40.44,23.34V89.21l-7.67-9.63h48.11V120H253V39.15Z"></path> <path class="cls-1" d="M18.26,39.15H0V120H40.43V79.58h48.1l-7.66,9.63V309.15L121.3,332.5V39.15Z"></path> <path class="cls-1" d="M43.85,21.41a3.54,3.54,0,0,1-3.53-3.53V3.53A3.54,3.54,0,0,1,43.85,0H63.34a3.54,3.54,0,0,1,3.54,3.53V17.88a3.54,3.54,0,0,1-3.54,3.53ZM46.71,5.28V16.12H60.49V5.28Z"></path> <path class="cls-1" d="M106.83,13.58a3.4,3.4,0,0,0,3.37-3.39V3.38A3.39,3.39,0,0,0,106.82,0H84V5.28h19.51v3c-5.39,0-10.76,0-16.14,0A3.39,3.39,0,0,0,84,11.63v9.78h6.74V13.58Z"></path> <polygon class="cls-1" points="24.24 0 24.24 5.28 15.31 5.28 15.31 21.41 8.92 21.41 8.92 5.28 0 5.28 0 0 8.92 0 15.31 0 24.24 0"></polygon> <polygon class="cls-1" points="246.12 11.13 246.33 15.51 246.62 21.41 253.02 21.41 251.96 0.01 245.11 0.01 237.33 14.96 229.55 0.01 222.69 0.01 221.64 21.41 228.03 21.41 228.32 15.51 228.54 11.13 229.46 12.86 229.43 12.86 231.81 17.41 231.85 17.41 233.97 21.41 240.69 21.41 242.8 17.41 242.85 17.41 245.23 12.86 245.21 12.86 246.12 11.13"></polygon> <polygon class="cls-1" points="187.69 0.02 193.87 6.21 200.05 0.02 209.09 0.02 198.39 10.72 197.06 12.04 197.06 21.4 190.68 21.4 190.68 12.04 189.35 10.72 178.65 0.02 187.69 0.02"></polygon> <path class="cls-1" d="M146.62,5.29V16.13h12.69V13.86h-6.37V9.09h8.27a3.39,3.39,0,0,1,3.38,3.38V18a3.38,3.38,0,0,1-3.36,3.38v0h-17.6A3.39,3.39,0,0,1,140.24,18V3.39A3.38,3.38,0,0,1,143.62,0h20.26V5.29Z"></path> </g> </g> </svg> 